HIERARCHY
ROOT Hips
{
	OFFSET	0.00	0.00	0.00
	CHANNELS 6 Xposition Yposition Zposition Zrotation Xrotation Yrotation
	JOINT LeftUpLeg
	{
		OFFSET	 0.126116	-0.014019	-0.065224
		CHANNELS 3 Zrotation Xrotation Yrotation
		JOINT LeftLeg
		{
			OFFSET	 0.000000	 0.000000	 0.569914
			CHANNELS 3 Zrotation Xrotation Yrotation
			JOINT LeftFoot
			{
				OFFSET	 0.000000	 0.000000	 0.544423
				CHANNELS 3 Zrotation Xrotation Yrotation
				JOINT LeftToeBase
				{
					OFFSET	 0.000000	 0.000000	 0.207117
					CHANNELS 3 Zrotation Xrotation Yrotation
					End Site
					{
						OFFSET	 0.000000	 0.000000	 0.207117
					}
				}
			}
		}
	}
	JOINT RightUpLeg
	{
		OFFSET	-0.124023	-0.008373	-0.065224
		CHANNELS 3 Zrotation Xrotation Yrotation
		JOINT RightLeg
		{
			OFFSET	 0.000000	 0.000000	 0.570047
			CHANNELS 3 Zrotation Xrotation Yrotation
			JOINT RightFoot
			{
				OFFSET	 0.000000	 0.000000	 0.544354
				CHANNELS 3 Zrotation Xrotation Yrotation
				JOINT RightToeBase
				{
					OFFSET	 0.000000	 0.000000	 0.207540
					CHANNELS 3 Zrotation Xrotation Yrotation
					End Site
					{
						OFFSET	 0.000000	 0.000000	 0.207540
					}
				}
			}
		}
	}
	JOINT Spine
	{
		OFFSET	 0.000184	-0.007763	 0.117403
		CHANNELS 3 Zrotation Xrotation Yrotation
		JOINT Spine1
		{
			OFFSET	 0.000000	 0.000000	 0.137269
			CHANNELS 3 Zrotation Xrotation Yrotation
			JOINT Spine2
			{
				OFFSET	 0.000000	 0.000000	 0.156879
				CHANNELS 3 Zrotation Xrotation Yrotation
				JOINT LeftShoulder
				{
					OFFSET	 0.080501	-0.002496	 0.160144
					CHANNELS 3 Zrotation Xrotation Yrotation
					JOINT LeftArm
					{
						OFFSET	 0.000000	 0.000000	 0.164363
						CHANNELS 3 Zrotation Xrotation Yrotation
						JOINT LeftForeArm
						{
							OFFSET	 0.000000	 0.000000	 0.364576
							CHANNELS 3 Zrotation Xrotation Yrotation
							JOINT LeftHand
							{
								OFFSET	 0.000000	 0.000000	 0.360812
								CHANNELS 3 Zrotation Xrotation Yrotation
								JOINT LeftHandIndex1
								{
									OFFSET	 0.000000	 0.000000	 0.086006
									CHANNELS 3 Zrotation Xrotation Yrotation
									JOINT LeftHandIndex2
									{
										OFFSET	 0.000000	 0.000000	 0.047236
										CHANNELS 3 Zrotation Xrotation Yrotation
										JOINT LeftHandIndex3
										{
											OFFSET	-0.004284	-0.000551	 0.038166
											CHANNELS 3 Zrotation Xrotation Yrotation
											End Site
											{
												OFFSET	-0.004284	-0.000551	 0.038166
											}
										}
									}
								}
							}
						}
					}
				}
				JOINT Neck
				{
					OFFSET	 0.000000	 0.000000	 0.176489
					CHANNELS 3 Zrotation Xrotation Yrotation
					JOINT Head
					{
						OFFSET	 0.000000	-0.001747	 0.077940
						CHANNELS 3 Zrotation Xrotation Yrotation
						End Site
						{
							OFFSET	 0.000000	-0.001747	 0.077940
						}
					}
				}
				JOINT RightShoulder
				{
					OFFSET	-0.080363	 0.000306	 0.159706
					CHANNELS 3 Zrotation Xrotation Yrotation
					JOINT RightArm
					{
						OFFSET	 0.000000	 0.000000	 0.164196
						CHANNELS 3 Zrotation Xrotation Yrotation
						JOINT RightForeArm
						{
							OFFSET	 0.000000	 0.000000	 0.365611
							CHANNELS 3 Zrotation Xrotation Yrotation
							JOINT RightHand
							{
								OFFSET	 0.000000	 0.000000	 0.360648
								CHANNELS 3 Zrotation Xrotation Yrotation
								JOINT RightHandIndex1
								{
									OFFSET	 0.000000	 0.000000	 0.069977
									CHANNELS 3 Zrotation Xrotation Yrotation
									JOINT RightHandIndex2
									{
										OFFSET	 0.000000	 0.000000	 0.052305
										CHANNELS 3 Zrotation Xrotation Yrotation
										JOINT RightHandIndex3
										{
											OFFSET	 0.009002	-0.000782	 0.042196
											CHANNELS 3 Zrotation Xrotation Yrotation
											End Site
											{
												OFFSET	 0.009002	-0.000782	 0.042196
											}
										}
									}
								}
							}
						}
					}
				}
			}
		}
	}
}
MOTION
Frames:    11
Frame Time: 0.03333334
-0.338030	-5.323795	 0.920863	-10.710180	 8.025850	 1.695942	 4.520161	-21.978790	 174.171900	-1.634679	-39.978890	-0.191219	 0.043011	 84.632640	-0.507980	-2.385704	 28.481640	-0.000621	-2.501575	-22.852340	-178.749100	-0.113249	-40.918430	-0.006144	-0.171263	 85.566500	 0.406934	 2.407691	 17.363980	-0.224967	-2.334701	 9.135400	-0.227610	-3.325001	 7.138456	-2.230744	-3.750392	 4.665362	-0.095511	-115.931900	 89.407190	-153.307900	 56.671490	 60.217340	-78.896970	-3.822981	-4.430364	-20.737710	 6.736998	-2.199821	-5.335332	-3.812334	 37.924440	-2.927599	-2.450526	 36.184240	 0.754587	-1.378229	 35.397820	-2.634230	 0.460221	 2.693567	-0.634106	-0.401752	 7.580595	 0.030998	 94.706150	 86.912320	 171.609500	-54.087830	 70.601850	 72.133150	-3.237172	-13.146980	 25.824170	-24.365210	-3.187133	 9.583777	 6.437017	 35.671460	-0.771858	 2.830251	 35.756010	-7.813440	-2.350882	 35.473990	 5.254307
-0.337588	-5.323282	 0.925817	-10.716570	 8.039537	 1.718641	 4.531874	-22.102010	 174.174900	-1.671694	-40.119750	-0.209676	 0.111839	 84.668030	-0.597653	-2.385770	 28.466040	-0.000283	-2.470731	-22.987230	-178.758000	-0.123139	-40.986590	 0.006159	-0.254942	 85.586910	 0.506401	 2.407682	 17.398160	-0.224293	-2.341382	 9.146691	-0.247776	-3.331676	 7.076055	-2.241757	-3.752303	 4.600894	-0.097677	-115.669700	 89.397370	-153.554500	 56.063840	 59.872100	-78.174100	-3.642804	-4.382711	-20.857210	 6.555415	-2.197379	-5.336742	-3.812334	 37.924440	-2.927599	-2.450526	 36.184240	 0.754587	-1.378229	 35.397820	-2.634230	 0.456969	 2.635720	-0.634417	-0.405511	 7.516723	 0.049645	 94.719870	 86.906930	 171.578000	-53.485380	 70.205100	 71.741860	-3.211082	-12.987560	 25.846000	-24.044300	-3.187038	 9.584125	 6.437017	 35.671460	-0.771858	 2.830251	 35.756010	-7.813440	-2.350882	 35.473990	 5.254307
-0.337170	-5.322881	 0.925538	-10.732680	 8.051523	 1.773573	 4.516953	-22.263260	 174.135700	-1.716217	-40.433350	-0.255634	 0.057701	 84.771640	-0.589739	-2.385689	 28.485330	-0.000699	-2.459175	-23.147490	-178.765400	-0.096505	-41.226360	 0.036188	-0.377906	 85.675370	 0.664943	 2.407684	 17.624380	-0.219874	-2.342426	 9.202070	-0.293979	-3.330388	 7.046789	-2.263309	-3.754705	 4.556806	-0.099189	-115.646300	 89.394450	-153.564100	 55.918590	 59.478470	-78.014180	-3.647674	-4.275463	-21.117930	 6.156965	-2.195853	-5.339223	-3.812334	 37.924440	-2.927599	-2.450526	 36.184240	 0.754587	-1.378229	 35.397820	-2.634230	 0.450617	 2.571602	-0.605818	-0.403643	 7.493255	 0.008374	 94.718910	 86.897770	 171.565600	-53.406990	 69.923220	 71.814750	-3.214805	-12.963300	 26.015800	-23.859660	-3.186778	 9.584791	 6.437017	 35.671460	-0.771858	 2.830251	 35.756010	-7.813440	-2.350882	 35.473990	 5.254307
-0.336772	-5.322312	 0.924635	-10.747110	 8.043046	 1.809407	 4.499816	-22.476130	 174.097600	-1.745775	-40.775450	-0.293009	 0.074875	 84.879410	-0.643121	-2.385466	 28.537290	-0.001824	-2.441915	-23.322390	-178.769100	-0.080679	-41.502360	 0.063836	-0.506310	 85.766080	 0.824493	 2.407669	 17.783980	-0.216757	-2.340170	 9.269668	-0.324590	-3.328495	 7.016641	-2.281775	-3.758552	 4.509404	-0.100849	-115.473700	 89.385800	-153.718100	 55.727620	 59.043280	-77.828670	-3.657385	-4.156024	-21.407080	 5.723475	-2.192431	-5.342231	-3.812334	 37.924440	-2.927599	-2.450526	 36.184240	 0.754587	-1.378229	 35.397820	-2.634230	 0.441734	 2.483579	-0.586537	-0.403565	 7.484960	-0.039579	 94.723820	 86.890890	 171.546900	-53.282580	 69.600780	 71.862470	-3.235980	-12.964840	 26.245360	-23.677790	-3.186211	 9.585819	 6.437017	 35.671460	-0.771858	 2.830251	 35.756010	-7.813440	-2.350882	 35.473990	 5.254307
-0.336152	-5.321475	 0.923459	-10.774890	 8.033632	 1.827504	 4.511264	-22.795530	 174.070100	-1.778300	-41.190700	-0.314979	 0.182688	 85.005190	-0.768506	-2.385236	 28.586080	-0.002881	-2.427974	-23.546310	-178.747700	-0.065331	-41.852990	 0.092634	-0.656121	 85.870900	 1.004734	 2.407649	 17.940260	-0.213699	-2.331564	 9.358410	-0.342792	-3.323014	 6.978307	-2.296625	-3.765405	 4.450315	-0.102980	-115.165300	 89.372550	-153.998100	 55.461460	 58.555250	-77.624280	-3.660689	-4.036822	-21.764650	 5.276517	-2.186196	-5.345808	-3.812334	 37.924440	-2.927599	-2.450526	 36.184240	 0.754587	-1.378229	 35.397820	-2.634230	 0.430843	 2.364544	-0.573229	-0.409336	 7.485356	-0.075946	 94.734660	 86.884420	 171.518400	-53.074450	 69.213940	 71.860440	-3.268101	-12.992680	 26.560500	-23.480640	-3.184984	 9.587472	 6.437017	 35.671460	-0.771858	 2.830251	 35.756010	-7.813440	-2.350882	 35.473990	 5.254307
-0.335519	-5.320530	 0.922195	-10.813960	 8.044092	 1.835341	 4.535771	-23.113250	 174.048200	-1.812377	-41.625890	-0.330735	 0.291287	 85.133010	-0.886222	-2.385139	 28.608300	-0.003362	-2.418070	-23.800680	-178.716700	-0.055106	-42.234470	 0.116984	-0.806033	 85.976250	 1.178220	 2.407626	 18.085840	-0.210847	-2.319843	 9.457052	-0.350238	-3.318540	 6.934314	-2.303896	-3.775942	 4.385782	-0.105400	-114.813200	 89.354710	-154.313600	 55.143500	 58.128860	-77.427750	-3.561625	-3.994939	-22.141290	 5.037024	-2.178498	-5.348713	-3.812334	 37.924440	-2.927599	-2.450526	 36.184240	 0.754587	-1.378229	 35.397820	-2.634230	 0.418361	 2.235518	-0.566598	-0.421938	 7.487966	-0.084039	 94.749610	 86.877890	 171.482800	-52.809060	 68.825830	 71.811530	-3.297055	-13.041030	 26.913060	-23.297160	-3.183477	 9.589552	 6.437017	 35.671460	-0.771858	 2.830251	 35.756010	-7.813440	-2.350882	 35.473990	 5.254307
-0.334900	-5.319474	 0.920831	-10.856120	 8.064646	 1.843612	 4.572181	-23.423170	 174.030400	-1.849155	-42.084110	-0.341974	 0.400726	 85.265090	-0.998507	-2.385047	 28.629500	-0.003815	-2.409187	-24.092340	-178.685900	-0.053021	-42.647740	 0.136072	-0.957892	 86.084390	 1.346084	 2.407586	 18.236850	-0.207881	-2.310142	 9.566108	-0.354447	-3.316136	 6.884122	-2.311104	-3.788350	 4.315591	-0.108073	-114.435600	 89.335890	-154.651000	 54.770520	 57.785890	-77.235040	-3.369694	-4.039753	-22.541840	 5.018945	-2.170035	-5.350721	-3.812334	 37.924440	-2.927599	-2.450526	 36.184240	 0.754587	-1.378229	 35.397820	-2.634230	 0.403948	 2.101538	-0.558678	-0.436324	 7.486755	-0.077499	 94.766700	 86.869750	 171.440800	-52.512890	 68.436040	 71.762900	-3.314798	-13.104670	 27.294360	-23.125770	-3.195718	 9.575741	 6.437017	 35.671460	-0.771858	 2.830251	 35.756010	-7.813440	-2.350882	 35.473990	 5.254307
-0.334182	-5.318142	 0.919193	-10.905660	 8.094778	 1.852889	 4.624423	-23.780400	 174.016000	-1.896392	-42.620550	-0.351888	 0.520788	 85.417340	-1.117748	-2.384918	 28.656640	-0.004413	-2.398793	-24.463820	-178.650800	-0.062777	-43.142990	 0.150103	-1.131193	 86.208210	 1.527781	 2.407527	 18.423350	-0.204226	-2.302289	 9.698879	-0.362473	-3.316023	 6.820220	-2.318929	-3.798790	 4.230796	-0.111189	-113.982100	 89.313870	-155.063200	 54.324770	 57.442250	-77.051730	-3.143738	-4.129853	-23.028390	 5.087461	-2.160531	-5.352643	-3.812334	 37.924440	-2.927599	-2.450526	 36.184240	 0.754587	-1.378229	 35.397820	-2.634230	 0.390286	 1.951671	-0.548224	-0.447942	 7.475760	-0.052754	 94.787350	 86.857760	 171.386900	-52.161830	 68.005240	 71.732860	-3.314842	-13.188630	 27.742440	-22.946090	-3.193198	 9.579184	 6.437017	 35.671460	-0.771858	 2.830251	 35.756010	-7.813440	-2.350882	 35.473990	 5.254307
-0.333370	-5.316491	 0.917283	-10.962060	 8.139417	 1.855687	 4.689455	-24.201620	 174.005800	-1.954653	-43.232910	-0.362111	 0.649411	 85.589450	-1.243924	-2.384723	 28.698930	-0.005330	-2.385314	-24.925190	-178.611000	-0.084839	-43.719540	 0.159376	-1.327470	 86.347730	 1.725422	 2.407436	 18.658340	-0.199609	-2.299220	 9.852910	-0.368062	-3.317567	 6.741322	-2.324843	-3.804187	 4.131346	-0.114656	-113.504200	 89.290310	-155.496300	 53.824540	 57.086310	-76.901570	-3.025101	-4.202749	-23.617440	 5.079314	-2.150560	-5.354923	-3.812334	 37.924440	-2.927599	-2.450526	 36.184240	 0.754587	-1.378229	 35.397820	-2.634230	 0.380815	 1.791073	-0.544387	-0.455070	 7.448615	-0.008446	 94.810290	 86.840610	 171.320800	-51.767840	 67.545810	 71.748770	-3.285666	-13.290620	 28.247230	-22.764410	-3.190760	 9.582356	 6.437017	 35.671460	-0.771858	 2.830251	 35.756010	-7.813440	-2.350882	 35.473990	 5.254307
-0.332420	-5.314321	 0.914938	-11.030250	 8.207626	 1.848381	 4.742903	-24.742480	 173.993800	-2.014841	-43.972510	-0.381671	 0.801816	 85.796070	-1.400953	-2.384430	 28.764290	-0.006746	-2.365574	-25.529260	-178.562000	-0.111923	-44.427640	 0.171873	-1.561985	 86.514630	 1.962270	 2.407276	 18.978980	-0.193289	-2.301033	 10.038220	-0.359130	-3.319026	 6.634101	-2.326181	-3.801803	 4.000290	-0.118940	-113.017100	 89.261920	-155.928000	 53.230150	 56.706130	-76.752610	-3.091971	-4.227207	-24.374860	 4.906186	-2.139891	-5.357861	-3.812334	 37.924440	-2.927599	-2.450526	 36.184240	 0.754587	-1.378229	 35.397820	-2.634230	 0.376971	 1.586011	-0.549813	-0.455327	 7.405901	 0.057831	 94.835870	 86.815000	 171.236000	-51.309510	 67.033580	 71.844960	-3.209608	-13.416590	 28.840270	-22.571020	-3.188259	 9.585521	 6.437017	 35.671460	-0.771858	 2.830251	 35.756010	-7.813440	-2.350882	 35.473990	 5.254307
-0.331512	-5.312093	 0.912717	-11.096070	 8.298265	 1.815207	 4.749186	-25.294430	 174.003500	-2.093952	-44.676450	-0.441363	 0.740495	 85.992780	-1.381108	-2.384119	 28.832470	-0.008221	-2.318182	-26.131130	-178.515300	-0.120231	-45.110580	 0.213320	-1.549020	 86.673690	 1.976093	 2.407067	 19.316580	-0.186632	-2.304125	 10.221270	-0.332975	-3.318828	 6.522281	-2.320870	-3.791694	 3.864949	-0.123109	-112.656300	 89.236900	-156.231800	 52.675670	 56.386940	-76.624820	-3.238685	-4.231534	-25.130090	 4.698056	-2.130694	-5.360477	-3.812334	 37.924440	-2.927599	-2.450526	 36.184240	 0.754587	-1.378229	 35.397820	-2.634230	 0.379967	 1.378945	-0.554716	-0.447377	 7.356128	 0.119362	 94.857190	 86.785580	 171.152000	-50.877750	 66.591140	 71.980920	-3.095939	-13.534510	 29.385310	-22.404940	-3.186201	 9.588069	 6.437017	 35.671460	-0.771858	 2.830251	 35.756010	-7.813440	-2.350882	 35.473990	 5.254307
